<mxfile host="app.diagrams.net" modified="2021-05-30T20:37:21.702Z" agent="5.0 (Windows NT 10.0; Win64; x64) AppleWebKit/537.36 (KHTML, like Gecko) Chrome/90.0.4430.212 Safari/537.36" etag="BQSVV6qQOvrxQ67-R1z7" version="14.7.2" type="github">
  <diagram id="ub0cie2rPjPyGJ3-68My" name="Page-1">
    <mxGraphModel dx="1422" dy="762" grid="1" gridSize="10" guides="1" tooltips="1" connect="1" arrows="1" fold="1" page="1" pageScale="1" pageWidth="850" pageHeight="1100" math="0" shadow="0">
      <root>
        <mxCell id="0" />
        <mxCell id="1" parent="0" />
        <mxCell id="OsNuoUtoCBM14_zCKdjc-5" style="edgeStyle=orthogonalEdgeStyle;rounded=0;orthogonalLoop=1;jettySize=auto;html=1;exitX=1;exitY=0.5;exitDx=0;exitDy=0;entryX=0.5;entryY=0;entryDx=0;entryDy=0;" edge="1" parent="1" source="OsNuoUtoCBM14_zCKdjc-1" target="OsNuoUtoCBM14_zCKdjc-3">
          <mxGeometry relative="1" as="geometry">
            <mxPoint x="480" y="90" as="targetPoint" />
          </mxGeometry>
        </mxCell>
        <mxCell id="OsNuoUtoCBM14_zCKdjc-18" value="event" style="edgeLabel;html=1;align=center;verticalAlign=middle;resizable=0;points=[];" vertex="1" connectable="0" parent="OsNuoUtoCBM14_zCKdjc-5">
          <mxGeometry x="-0.1143" y="-2" relative="1" as="geometry">
            <mxPoint as="offset" />
          </mxGeometry>
        </mxCell>
        <mxCell id="OsNuoUtoCBM14_zCKdjc-17" style="edgeStyle=orthogonalEdgeStyle;rounded=0;orthogonalLoop=1;jettySize=auto;html=1;entryX=0.833;entryY=0.017;entryDx=0;entryDy=0;entryPerimeter=0;" edge="1" parent="1" source="OsNuoUtoCBM14_zCKdjc-1" target="OsNuoUtoCBM14_zCKdjc-4">
          <mxGeometry relative="1" as="geometry" />
        </mxCell>
        <mxCell id="OsNuoUtoCBM14_zCKdjc-19" value="event" style="edgeLabel;html=1;align=center;verticalAlign=middle;resizable=0;points=[];" vertex="1" connectable="0" parent="OsNuoUtoCBM14_zCKdjc-17">
          <mxGeometry x="-0.1382" y="1" relative="1" as="geometry">
            <mxPoint as="offset" />
          </mxGeometry>
        </mxCell>
        <mxCell id="OsNuoUtoCBM14_zCKdjc-1" value="evevts.js" style="rounded=0;whiteSpace=wrap;html=1;" vertex="1" parent="1">
          <mxGeometry x="350" y="60" width="120" height="60" as="geometry" />
        </mxCell>
        <mxCell id="OsNuoUtoCBM14_zCKdjc-2" value="caps.js" style="rounded=0;whiteSpace=wrap;html=1;" vertex="1" parent="1">
          <mxGeometry x="350" y="250" width="120" height="60" as="geometry" />
        </mxCell>
        <mxCell id="OsNuoUtoCBM14_zCKdjc-6" style="edgeStyle=orthogonalEdgeStyle;rounded=0;orthogonalLoop=1;jettySize=auto;html=1;entryX=1;entryY=0.75;entryDx=0;entryDy=0;" edge="1" parent="1" source="OsNuoUtoCBM14_zCKdjc-3" target="OsNuoUtoCBM14_zCKdjc-2">
          <mxGeometry relative="1" as="geometry">
            <Array as="points">
              <mxPoint x="630" y="295" />
            </Array>
          </mxGeometry>
        </mxCell>
        <mxCell id="OsNuoUtoCBM14_zCKdjc-9" value="pick-up" style="edgeLabel;html=1;align=center;verticalAlign=middle;resizable=0;points=[];" vertex="1" connectable="0" parent="OsNuoUtoCBM14_zCKdjc-6">
          <mxGeometry x="0.2471" relative="1" as="geometry">
            <mxPoint as="offset" />
          </mxGeometry>
        </mxCell>
        <mxCell id="OsNuoUtoCBM14_zCKdjc-7" style="edgeStyle=orthogonalEdgeStyle;rounded=0;orthogonalLoop=1;jettySize=auto;html=1;entryX=1;entryY=0.25;entryDx=0;entryDy=0;" edge="1" parent="1" source="OsNuoUtoCBM14_zCKdjc-3" target="OsNuoUtoCBM14_zCKdjc-4">
          <mxGeometry relative="1" as="geometry">
            <Array as="points">
              <mxPoint x="250" y="170" />
            </Array>
          </mxGeometry>
        </mxCell>
        <mxCell id="OsNuoUtoCBM14_zCKdjc-8" value="pick-up" style="edgeLabel;html=1;align=center;verticalAlign=middle;resizable=0;points=[];" vertex="1" connectable="0" parent="OsNuoUtoCBM14_zCKdjc-7">
          <mxGeometry x="-0.1077" y="4" relative="1" as="geometry">
            <mxPoint as="offset" />
          </mxGeometry>
        </mxCell>
        <mxCell id="OsNuoUtoCBM14_zCKdjc-3" value="driver.js" style="rounded=0;whiteSpace=wrap;html=1;" vertex="1" parent="1">
          <mxGeometry x="570" y="140" width="120" height="60" as="geometry" />
        </mxCell>
        <mxCell id="OsNuoUtoCBM14_zCKdjc-13" style="edgeStyle=orthogonalEdgeStyle;rounded=0;orthogonalLoop=1;jettySize=auto;html=1;entryX=0.558;entryY=1.033;entryDx=0;entryDy=0;entryPerimeter=0;" edge="1" parent="1" source="OsNuoUtoCBM14_zCKdjc-4" target="OsNuoUtoCBM14_zCKdjc-2">
          <mxGeometry relative="1" as="geometry">
            <Array as="points">
              <mxPoint x="70" y="180" />
              <mxPoint x="70" y="360" />
              <mxPoint x="417" y="360" />
            </Array>
          </mxGeometry>
        </mxCell>
        <mxCell id="OsNuoUtoCBM14_zCKdjc-14" value="delivery" style="edgeLabel;html=1;align=center;verticalAlign=middle;resizable=0;points=[];" vertex="1" connectable="0" parent="OsNuoUtoCBM14_zCKdjc-13">
          <mxGeometry x="0.0393" y="4" relative="1" as="geometry">
            <mxPoint as="offset" />
          </mxGeometry>
        </mxCell>
        <mxCell id="OsNuoUtoCBM14_zCKdjc-15" style="edgeStyle=orthogonalEdgeStyle;rounded=0;orthogonalLoop=1;jettySize=auto;html=1;entryX=1;entryY=0.5;entryDx=0;entryDy=0;" edge="1" parent="1" source="OsNuoUtoCBM14_zCKdjc-4" target="OsNuoUtoCBM14_zCKdjc-3">
          <mxGeometry relative="1" as="geometry">
            <Array as="points">
              <mxPoint x="190" y="30" />
              <mxPoint x="710" y="30" />
              <mxPoint x="710" y="170" />
            </Array>
          </mxGeometry>
        </mxCell>
        <mxCell id="OsNuoUtoCBM14_zCKdjc-16" value="delivery" style="edgeLabel;html=1;align=center;verticalAlign=middle;resizable=0;points=[];" vertex="1" connectable="0" parent="OsNuoUtoCBM14_zCKdjc-15">
          <mxGeometry x="-0.0025" y="1" relative="1" as="geometry">
            <mxPoint as="offset" />
          </mxGeometry>
        </mxCell>
        <mxCell id="OsNuoUtoCBM14_zCKdjc-20" style="edgeStyle=orthogonalEdgeStyle;rounded=0;orthogonalLoop=1;jettySize=auto;html=1;entryX=0;entryY=0.75;entryDx=0;entryDy=0;" edge="1" parent="1" source="OsNuoUtoCBM14_zCKdjc-4" target="OsNuoUtoCBM14_zCKdjc-2">
          <mxGeometry relative="1" as="geometry">
            <Array as="points">
              <mxPoint x="200" y="295" />
            </Array>
          </mxGeometry>
        </mxCell>
        <mxCell id="OsNuoUtoCBM14_zCKdjc-21" value="in-transit" style="edgeLabel;html=1;align=center;verticalAlign=middle;resizable=0;points=[];" vertex="1" connectable="0" parent="OsNuoUtoCBM14_zCKdjc-20">
          <mxGeometry x="0.2511" y="-3" relative="1" as="geometry">
            <mxPoint as="offset" />
          </mxGeometry>
        </mxCell>
        <mxCell id="OsNuoUtoCBM14_zCKdjc-4" value="vendor.js" style="rounded=0;whiteSpace=wrap;html=1;" vertex="1" parent="1">
          <mxGeometry x="130" y="150" width="120" height="60" as="geometry" />
        </mxCell>
      </root>
    </mxGraphModel>
  </diagram>
</mxfile>
